<?xml version="1.0" encoding="utf-8"?>
<!-- Generator: Adobe Illustrator 19.2.1, SVG Export Plug-In . SVG Version: 6.00 Build 0)  -->
<svg version="1.1" xmlns="http://www.w3.org/2000/svg" xmlns:xlink="http://www.w3.org/1999/xlink" x="0px" y="0px" width="1400px"
	 height="980px" viewBox="0 0 1400 980" enable-background="new 0 0 1400 980" xml:space="preserve">
<g id="Layer_2">
	<rect fill="#FFFFFF" width="1400" height="980"/>
</g>
<g id="Layer_1">
	<g>
		<g>
			<polygon fill="#9FDDF9" points="881.8,549.2 818,549.2 821.4,457.6 878.3,457.6 			"/>
			<path fill="#40002F" d="M881.8,552.2H818c-0.8,0-1.6-0.3-2.1-0.9c-0.6-0.6-0.8-1.3-0.8-2.1l3.4-91.6c0.1-1.6,1.3-2.8,2.9-2.8
				h56.9c1.6,0,2.9,1.2,2.9,2.8l3.4,91.6c0,0.8-0.3,1.6-0.8,2.1C883.3,551.8,882.5,552.2,881.8,552.2z M821,546.3h57.7l-3.2-85.7
				h-51.3L821,546.3z"/>
			<polygon fill="#5DBF8C" points="878.8,470.4 878.3,457.6 821.4,457.6 820.9,470.4 			"/>
			<path fill="#40002F" d="M878.8,473.3h-57.9c-0.8,0-1.6-0.3-2.1-0.9c-0.6-0.6-0.8-1.3-0.8-2.1l0.5-12.8c0.1-1.6,1.3-2.8,2.9-2.8
				h56.9c1.6,0,2.9,1.2,2.9,2.8l0.5,12.8c0,0.8-0.3,1.6-0.8,2.1C880.4,473,879.6,473.3,878.8,473.3z M824,467.5h51.8l-0.3-6.9h-51.3
				L824,467.5z"/>
			<path fill="#40002F" d="M869.6,460.6h-37.8c-1.6,0-2.9-1.3-2.9-2.9c0-10.1,8.2-18.4,18.4-18.4h6.9c10.1,0,18.4,8.2,18.4,18.4
				C872.5,459.3,871.2,460.6,869.6,460.6z M835,454.7h31.3c-1.3-5.5-6.3-9.6-12.2-9.6h-6.9C841.3,445.1,836.4,449.2,835,454.7z"/>
			<g>
				<path fill="#40002F" d="M830.8,485.4c-1.6,0-2.9-1.3-2.9-2.9v-3.7c0-1.6,1.3-2.9,2.9-2.9c1.6,0,2.9,1.3,2.9,2.9v3.7
					C833.7,484.1,832.4,485.4,830.8,485.4z"/>
				<path fill="#40002F" d="M843.4,485.4c-1.6,0-2.9-1.3-2.9-2.9v-3.7c0-1.6,1.3-2.9,2.9-2.9c1.6,0,2.9,1.3,2.9,2.9v3.7
					C846.3,484.1,845,485.4,843.4,485.4z"/>
				<path fill="#40002F" d="M856,485.4c-1.6,0-2.9-1.3-2.9-2.9v-3.7c0-1.6,1.3-2.9,2.9-2.9s2.9,1.3,2.9,2.9v3.7
					C858.9,484.1,857.6,485.4,856,485.4z"/>
				<path fill="#40002F" d="M868.9,485.4c-1.6,0-2.9-1.3-2.9-2.9v-3.7c0-1.6,1.3-2.9,2.9-2.9c1.6,0,2.9,1.3,2.9,2.9v3.7
					C871.9,484.1,870.6,485.4,868.9,485.4z"/>
			</g>
			<g>
				<path fill="#40002F" d="M830.8,503.9c-1.6,0-2.9-1.3-2.9-2.9v-3.7c0-1.6,1.3-2.9,2.9-2.9c1.6,0,2.9,1.3,2.9,2.9v3.7
					C833.7,502.6,832.4,503.9,830.8,503.9z"/>
				<path fill="#40002F" d="M843.4,503.5c-1.6,0-2.9-1.3-2.9-2.9v-3.4c0-1.6,1.3-2.9,2.9-2.9c1.6,0,2.9,1.3,2.9,2.9v3.4
					C846.3,502.2,845,503.5,843.4,503.5z"/>
				<path fill="#40002F" d="M856,503.9c-1.6,0-2.9-1.3-2.9-2.9v-3.7c0-1.6,1.3-2.9,2.9-2.9s2.9,1.3,2.9,2.9v3.7
					C858.9,502.6,857.6,503.9,856,503.9z"/>
				<path fill="#40002F" d="M868.9,503.5c-1.6,0-2.9-1.3-2.9-2.9v-3.4c0-1.6,1.3-2.9,2.9-2.9c1.6,0,2.9,1.3,2.9,2.9v3.4
					C871.9,502.2,870.6,503.5,868.9,503.5z"/>
			</g>
			<g>
				<path fill="#40002F" d="M830.1,522c-1.6,0-2.9-1.3-2.9-2.9v-3.4c0-1.6,1.3-2.9,2.9-2.9c1.6,0,2.9,1.3,2.9,2.9v3.4
					C833,520.7,831.7,522,830.1,522z"/>
				<path fill="#40002F" d="M843.4,522c-1.6,0-2.9-1.3-2.9-2.9v-3.4c0-1.6,1.3-2.9,2.9-2.9c1.6,0,2.9,1.3,2.9,2.9v3.4
					C846.3,520.7,845,522,843.4,522z"/>
				<path fill="#40002F" d="M856,522c-1.6,0-2.9-1.3-2.9-2.9v-3.4c0-1.6,1.3-2.9,2.9-2.9s2.9,1.3,2.9,2.9v3.4
					C858.9,520.7,857.6,522,856,522z"/>
				<path fill="#40002F" d="M869.7,522c-1.6,0-2.9-1.3-2.9-2.9v-3.4c0-1.6,1.3-2.9,2.9-2.9s2.9,1.3,2.9,2.9v3.4
					C872.6,520.7,871.3,522,869.7,522z"/>
			</g>
			<path fill="#40002F" d="M829.4,540.1c-1.6,0-2.9-1.3-2.9-2.9v-3c0-1.6,1.3-2.9,2.9-2.9s2.9,1.3,2.9,2.9v3
				C832.3,538.8,831,540.1,829.4,540.1z"/>
			<path fill="#40002F" d="M843.4,540.1c-1.6,0-2.9-1.3-2.9-2.9v-3c0-1.6,1.3-2.9,2.9-2.9c1.6,0,2.9,1.3,2.9,2.9v3
				C846.3,538.8,845,540.1,843.4,540.1z"/>
			<path fill="#40002F" d="M856,540.1c-1.6,0-2.9-1.3-2.9-2.9v-3c0-1.6,1.3-2.9,2.9-2.9s2.9,1.3,2.9,2.9v3
				C858.9,538.8,857.6,540.1,856,540.1z"/>
			<path fill="#40002F" d="M870.4,540.1c-1.6,0-2.9-1.3-2.9-2.9v-3c0-1.6,1.3-2.9,2.9-2.9s2.9,1.3,2.9,2.9v3
				C873.3,538.8,872,540.1,870.4,540.1z"/>
		</g>
		<g>
			<path fill="#F49CC3" d="M1128.2,249.9h-35.1c-3.8,0-6.9,2.9-7.2,6.7l-1.4,18.8h52.6l-1.7-18.9
				C1135,252.8,1131.9,249.9,1128.2,249.9z"/>
			<path fill="#40002F" d="M1137.1,278.3h-52.6c-0.8,0-1.6-0.3-2.1-0.9c-0.6-0.6-0.8-1.4-0.8-2.2l1.4-18.8c0.4-5.3,4.8-9.4,10.1-9.4
				h35.1c5.3,0,9.6,3.9,10.1,9.2l1.7,18.9c0.1,0.8-0.2,1.6-0.8,2.2C1138.7,278,1137.9,278.3,1137.1,278.3z M1087.7,272.5h46.2
				l-1.4-15.7c-0.2-2.2-2-3.9-4.2-3.9h-35.1c-2.2,0-4.1,1.7-4.3,4L1087.7,272.5z"/>
			<rect x="1089.5" y="241.9" fill="#9FDDF9" width="42.6" height="8.8"/>
			<path fill="#40002F" d="M1132.1,253.6h-42.6c-1.6,0-2.9-1.3-2.9-2.9v-8.8c0-1.6,1.3-2.9,2.9-2.9h42.6c1.6,0,2.9,1.3,2.9,2.9v8.8
				C1135,252.2,1133.7,253.6,1132.1,253.6z M1092.4,247.7h36.7v-2.9h-36.7V247.7z"/>
			<polygon fill="#9FDDF9" points="1134.8,170.9 1086.4,170.9 1089.5,241.9 1132.1,241.9 			"/>
			<path fill="#40002F" d="M1132.1,244.8h-42.6c-1.6,0-2.9-1.2-2.9-2.8l-3.1-71c0-0.8,0.3-1.6,0.8-2.1c0.6-0.6,1.3-0.9,2.1-0.9h48.4
				c0.8,0,1.6,0.3,2.1,0.9c0.6,0.6,0.8,1.3,0.8,2.1l-2.7,71C1134.9,243.5,1133.6,244.8,1132.1,244.8z M1092.3,238.9h36.9l2.5-65.1
				h-42.3L1092.3,238.9z"/>
			<path fill="#40002F" d="M1139.4,173.8h-57.2c-1.6,0-2.9-1.3-2.9-2.9c0-1.6,1.3-2.9,2.9-2.9h57.2c1.6,0,2.9,1.3,2.9,2.9
				C1142.3,172.5,1141,173.8,1139.4,173.8z"/>
			<path fill="#40002F" d="M1134.4,184.5h-11.6c-1.6,0-2.9-1.3-2.9-2.9c0-1.6,1.3-2.9,2.9-2.9h11.6c1.6,0,2.9,1.3,2.9,2.9
				C1137.3,183.2,1136,184.5,1134.4,184.5z"/>
			<path fill="#40002F" d="M1133.4,199.8h-10.6c-1.6,0-2.9-1.3-2.9-2.9c0-1.6,1.3-2.9,2.9-2.9h10.6c1.6,0,2.9,1.3,2.9,2.9
				C1136.3,198.5,1135,199.8,1133.4,199.8z"/>
			<path fill="#40002F" d="M1132.7,215.2h-9.9c-1.6,0-2.9-1.3-2.9-2.9s1.3-2.9,2.9-2.9h9.9c1.6,0,2.9,1.3,2.9,2.9
				S1134.4,215.2,1132.7,215.2z"/>
			<path fill="#40002F" d="M1132.6,230.6h-9.8c-1.6,0-2.9-1.3-2.9-2.9c0-1.6,1.3-2.9,2.9-2.9h9.8c1.6,0,2.9,1.3,2.9,2.9
				C1135.5,229.3,1134.2,230.6,1132.6,230.6z"/>
			<path fill="#F49CC3" d="M1126.1,162h-30.7c-4.9,0-8.8,4-8.8,8.8v0h48.4v0C1135,166,1131,162,1126.1,162z"/>
			<path fill="#40002F" d="M1135,173.8h-48.4c-1.6,0-2.9-1.3-2.9-2.9c0-6.5,5.3-11.8,11.8-11.8h30.7c6.5,0,11.8,5.3,11.8,11.8
				C1137.9,172.5,1136.6,173.8,1135,173.8z M1090.3,168h41c-1-1.8-2.9-3-5.1-3h-30.7C1093.3,165,1091.3,166.2,1090.3,168z"/>
			<path fill="#40002F" d="M1110.8,165c-1.6,0-2.9-1.3-2.9-2.9v-5.8c0-1.6,1.3-2.9,2.9-2.9s2.9,1.3,2.9,2.9v5.8
				C1113.7,163.7,1112.4,165,1110.8,165z"/>
			<circle fill="#9FDDF9" cx="1110.6" cy="263" r="6.2"/>
			<path fill="#40002F" d="M1110.6,272.1c-5,0-9.1-4.1-9.1-9.1s4.1-9.1,9.1-9.1s9.1,4.1,9.1,9.1S1115.6,272.1,1110.6,272.1z
				 M1110.6,259.7c-1.8,0-3.3,1.5-3.3,3.3s1.5,3.3,3.3,3.3s3.3-1.5,3.3-3.3S1112.4,259.7,1110.6,259.7z"/>
		</g>
		<g>
			<path fill="#F49CC3" d="M582.6,282.6h-50.8c-6.5,0-11.8-5.3-11.8-11.8v-59.2h74.3v59.2C594.3,277.3,589.1,282.6,582.6,282.6z"/>
			<path fill="#40002F" d="M582.6,285.5h-50.8c-8.1,0-14.7-6.6-14.7-14.7v-59.2c0-1.6,1.3-2.9,2.9-2.9h74.3c1.6,0,2.9,1.3,2.9,2.9
				v59.2C597.2,278.9,590.7,285.5,582.6,285.5z M523,214.5v56.3c0,4.9,4,8.8,8.8,8.8h50.8c4.9,0,8.8-4,8.8-8.8v-56.3H523z"/>
			<path fill="#9FDDF9" d="M507.7,227.6H520v-9.5h-12.3c-2.3,0-4.2,1.9-4.2,4.2v1.1C503.5,225.7,505.4,227.6,507.7,227.6z"/>
			<path fill="#40002F" d="M520,230.5h-12.3c-3.9,0-7.1-3.2-7.1-7.1v-1.1c0-3.9,3.2-7.1,7.1-7.1H520c1.6,0,2.9,1.3,2.9,2.9v9.5
				C523,229.2,521.6,230.5,520,230.5z M507.7,221c-0.7,0-1.3,0.6-1.3,1.3v1.1c0,0.7,0.6,1.3,1.3,1.3h9.4V221H507.7z"/>
			<path fill="#9FDDF9" d="M606.6,227.6h-12.3v-9.5h12.3c2.3,0,4.2,1.9,4.2,4.2v1.1C610.9,225.7,609,227.6,606.6,227.6z"/>
			<path fill="#40002F" d="M606.6,230.5h-12.3c-1.6,0-2.9-1.3-2.9-2.9v-9.5c0-1.6,1.3-2.9,2.9-2.9h12.3c3.9,0,7.1,3.2,7.1,7.1v1.1
				C613.8,227.3,610.6,230.5,606.6,230.5z M597.2,224.7h9.4c0.7,0,1.3-0.6,1.3-1.3v-1.1c0-0.7-0.6-1.3-1.3-1.3h-9.4V224.7z"/>
			<path fill="#9FDDF9" d="M578,198.5h-41.7c-7.8,0-14.6,5.4-16.3,13.1v0h74.3v0C592.6,203.9,585.8,198.5,578,198.5z"/>
			<path fill="#40002F" d="M594.3,214.5H520c-0.9,0-1.7-0.4-2.3-1.1c-0.6-0.7-0.8-1.6-0.6-2.5c2-9,9.9-15.3,19.2-15.3H578
				c9.3,0,17.1,6.3,19.2,15.3c0.2,0.9,0,1.8-0.6,2.5C596.1,214.1,595.2,214.5,594.3,214.5z M524.2,208.7h65.9
				c-2.4-4.4-6.9-7.2-12.1-7.2h-41.7C531.1,201.4,526.6,204.3,524.2,208.7z"/>
			<path fill="#F49CC3" d="M557.8,187h-1.3c-2.8,0-5,2.2-5,5v6.5h11.3V192C562.8,189.2,560.6,187,557.8,187z"/>
			<path fill="#40002F" d="M562.8,201.4h-11.3c-1.6,0-2.9-1.3-2.9-2.9V192c0-4.4,3.5-7.9,7.9-7.9h1.3c4.4,0,7.9,3.5,7.9,7.9v6.5
				C565.7,200.1,564.4,201.4,562.8,201.4z M554.5,195.6h5.4V192c0-1.1-0.9-2.1-2.1-2.1h-1.3c-1.1,0-2.1,0.9-2.1,2.1V195.6z"/>
		</g>
		<g>
			<rect x="285.2" y="722.5" fill="#9FDDF9" width="11.6" height="32.2"/>
			<path fill="#40002F" d="M296.8,757.6h-11.6c-1.6,0-2.9-1.3-2.9-2.9v-32.2c0-1.6,1.3-2.9,2.9-2.9h11.6c1.6,0,2.9,1.3,2.9,2.9v32.2
				C299.7,756.3,298.4,757.6,296.8,757.6z M288.1,751.7h5.8v-26.3h-5.8V751.7z"/>
			<path fill="#F49CC3" d="M343.1,816.7H239l2.6-28.9c1.7-18.8,17.4-33.1,36.2-33.1h26.5c18.8,0,34.6,14.4,36.2,33.1L343.1,816.7z"
				/>
			<path fill="#40002F" d="M343.1,819.6H239c-0.8,0-1.6-0.3-2.2-1c-0.6-0.6-0.8-1.4-0.8-2.2l2.6-28.9c0.9-9.8,5.4-18.9,12.6-25.5
				c7.3-6.6,16.7-10.3,26.5-10.3h26.5c9.8,0,19.3,3.7,26.5,10.3c7.3,6.6,11.7,15.7,12.6,25.5l2.6,28.9c0.1,0.8-0.2,1.6-0.8,2.2
				C344.7,819.3,343.9,819.6,343.1,819.6z M242.2,813.8h97.7l-2.3-25.7c-1.5-17.4-15.9-30.5-33.3-30.5h-26.5
				c-17.4,0-31.8,13.1-33.3,30.5L242.2,813.8z"/>
			<circle fill="#9FDDF9" cx="291" cy="786.1" r="19.1"/>
			<path fill="#40002F" d="M291,808.1c-12.1,0-22-9.9-22-22c0-12.1,9.9-22,22-22c12.1,0,22,9.9,22,22
				C313,798.3,303.1,808.1,291,808.1z M291,770c-8.9,0-16.1,7.2-16.1,16.1c0,8.9,7.2,16.1,16.1,16.1c8.9,0,16.1-7.2,16.1-16.1
				C307.2,777.2,299.9,770,291,770z"/>
			<path fill="#FFCD60" d="M328.1,731.5H254c-5.8,0-10.5-4.7-10.5-10.5v-4.4h95.2v4.4C338.6,726.8,333.9,731.5,328.1,731.5z"/>
			<path fill="#40002F" d="M328.1,734.4H254c-7.4,0-13.5-6-13.5-13.5v-4.4c0-1.6,1.3-2.9,2.9-2.9h95.2c1.6,0,2.9,1.3,2.9,2.9v4.4
				C341.5,728.4,335.5,734.4,328.1,734.4z M246.4,719.5v1.4c0,4.2,3.4,7.6,7.6,7.6h74.1c4.2,0,7.6-3.4,7.6-7.6v-1.4H246.4z"/>
			<path fill="#40002F" d="M291,789.1c-1.6,0-2.9-1.3-2.9-2.9v-11.5c0-1.6,1.3-2.9,2.9-2.9c1.6,0,2.9,1.3,2.9,2.9v11.5
				C293.9,787.8,292.6,789.1,291,789.1z"/>
		</g>
		<g>
			<path fill="#9FDDF9" d="M1146.4,457.2h-12.8c-5.9,0-10.8,4.8-10.8,10.8v87.9h8.5v-87.7c0-2.2,1.8-4,4-4h11.1V457.2z"/>
			<path fill="#40002F" d="M1131.3,558.5h-8.5c-1.4,0-2.6-1.2-2.6-2.6V468c0-7.4,6-13.3,13.3-13.3h12.8c1.4,0,2.6,1.2,2.6,2.6v6.9
				c0,1.4-1.2,2.6-2.6,2.6h-11.1c-0.8,0-1.4,0.6-1.4,1.4v87.7C1133.9,557.3,1132.7,558.5,1131.3,558.5z M1125.4,553.3h3.3v-85.1
				c0-3.6,3-6.6,6.6-6.6h8.5v-1.8h-10.3c-4.5,0-8.2,3.7-8.2,8.2V553.3z"/>
			<path fill="#9FDDF9" d="M1108.2,579.8L1108.2,579.8c-12.8,0-23.1-10.3-23.1-23.1v-9.5h46.2v9.5
				C1131.3,569.5,1121,579.8,1108.2,579.8z"/>
			<path fill="#40002F" d="M1108.2,582.4c-14.2,0-25.7-11.5-25.7-25.7v-9.5c0-1.4,1.2-2.6,2.6-2.6h46.2c1.4,0,2.6,1.2,2.6,2.6v9.5
				C1133.9,570.9,1122.4,582.4,1108.2,582.4z M1087.7,549.8v6.9c0,11.3,9.2,20.5,20.5,20.5c11.3,0,20.5-9.2,20.5-20.5v-6.9H1087.7z"
				/>
			<path fill="#FFCD60" d="M1102.8,435.4h-9.2h-9.2v25.5c0,3.2,1.1,6.2,3.1,8.7l6,7.4h0.1v57.7c0,2.6,2.1,4.6,4.6,4.6l0,0
				c2.6,0,4.6-2.1,4.6-4.6v-57.7h0.1l6-7.4c2-2.4,3.1-5.5,3.1-8.7v-25.5H1102.8z"/>
			<path fill="#40002F" d="M1098.1,541.9c-4,0-7.2-3.2-7.2-7.2V478l-5.6-6.8c-2.4-2.9-3.7-6.6-3.7-10.3v-25.5c0-1.4,1.2-2.6,2.6-2.6
				h27.7c1.4,0,2.6,1.2,2.6,2.6v25.5c0,3.7-1.3,7.4-3.7,10.3l-5.6,6.8v56.7C1105.3,538.7,1102.1,541.9,1098.1,541.9z M1095.1,474.9
				c0.6,0.5,1,1.2,1,2.1v57.7c0,1.1,0.9,2,2,2c1.1,0,2-0.9,2-2v-57.7c0-0.8,0.4-1.6,1-2.1l5.7-6.9c1.6-2,2.5-4.5,2.5-7v-23h-22.6v23
				c0,2.6,0.9,5.1,2.5,7L1095.1,474.9z"/>
			<path fill="#40002F" d="M1092.8,461.6c-1.4,0-2.6-1.2-2.6-2.6v-15.9c0-1.4,1.2-2.6,2.6-2.6s2.6,1.2,2.6,2.6V459
				C1095.4,460.4,1094.2,461.6,1092.8,461.6z"/>
			<path fill="#40002F" d="M1102.9,461.6c-1.4,0-2.6-1.2-2.6-2.6v-15.9c0-1.4,1.2-2.6,2.6-2.6s2.6,1.2,2.6,2.6V459
				C1105.4,460.4,1104.3,461.6,1102.9,461.6z"/>
		</g>
		<g>
			<rect x="1111.6" y="774.7" fill="#5DBF8C" width="9.5" height="14.5"/>
			<path fill="#40002F" d="M1121.2,791.6h-9.5c-1.3,0-2.4-1.1-2.4-2.4v-14.5c0-1.3,1.1-2.4,2.4-2.4h9.5c1.3,0,2.4,1.1,2.4,2.4v14.5
				C1123.6,790.5,1122.5,791.6,1121.2,791.6z M1114.1,786.8h4.7v-9.7h-4.7V786.8z"/>
			<path fill="#FFCD60" d="M1116.9,840.9h-1c-3.2,0-5.8-2.6-5.8-5.8l0-45.9h12.7v45.9C1122.7,838.3,1120.1,840.9,1116.9,840.9z"/>
			<path fill="#40002F" d="M1116.9,843.8h-1c-4.8,0-8.7-3.9-8.7-8.7v-45.9c0-1.6,1.3-2.9,2.9-2.9h12.7c1.6,0,2.9,1.3,2.9,2.9v45.9
				C1125.7,839.9,1121.7,843.8,1116.9,843.8z M1113,792.1v43c0,1.6,1.3,2.9,2.9,2.9h1c1.6,0,2.9-1.3,2.9-2.9v-43H1113z"/>
			<circle fill="#FFCD60" cx="1116.4" cy="731" r="44.6"/>
			<path fill="#40002F" d="M1116.4,778.5c-26.2,0-47.5-21.3-47.5-47.5c0-26.2,21.3-47.5,47.5-47.5s47.5,21.3,47.5,47.5
				C1163.9,757.2,1142.6,778.5,1116.4,778.5z M1116.4,689.3c-23,0-41.7,18.7-41.7,41.7s18.7,41.7,41.7,41.7s41.7-18.7,41.7-41.7
				S1139.4,689.3,1116.4,689.3z"/>
			<circle fill="#5DBF8C" cx="1116.4" cy="731" r="31.5"/>
			<path fill="#40002F" d="M1116.4,765.1c-18.8,0-34.1-15.3-34.1-34.1s15.3-34.1,34.1-34.1s34.1,15.3,34.1,34.1
				S1135.2,765.1,1116.4,765.1z M1116.4,702.1c-16,0-28.9,13-28.9,28.9s13,28.9,28.9,28.9s28.9-13,28.9-28.9
				S1132.4,702.1,1116.4,702.1z"/>
			<circle fill="#40002F" cx="1116.4" cy="832.6" r="2.6"/>
		</g>
		<g>
			<path fill="#5DBF8C" d="M280.7,195.6v-53.9h-11.2v53.9c0,1.2-0.4,2.4-1.2,3.4l-7.3,8.9c-1.5,1.8-2.3,4.1-2.3,6.5v67.7h33v-67.7
				c0-2.4-0.8-4.7-2.3-6.5l-7.3-8.9C281.1,198,280.7,196.8,280.7,195.6z"/>
			<path fill="#40002F" d="M291.6,285h-33c-1.6,0-2.9-1.3-2.9-2.9v-67.7c0-3,1.1-6,3-8.3l7.3-8.9c0.4-0.4,0.6-1,0.6-1.5v-53.9
				c0-1.6,1.3-2.9,2.9-2.9h11.2c1.6,0,2.9,1.3,2.9,2.9v53.9c0,0.6,0.2,1.1,0.6,1.5l7.3,8.9c1.9,2.3,3,5.3,3,8.3v67.7
				C294.5,283.7,293.2,285,291.6,285z M261.5,279.1h27.1v-64.7c0-1.7-0.6-3.3-1.7-4.6l-7.3-8.9c-1.2-1.5-1.9-3.4-1.9-5.3v-50.9h-5.3
				v50.9c0,1.9-0.7,3.8-1.9,5.3l-7.3,8.9c-1.1,1.3-1.7,2.9-1.7,4.6V279.1z"/>
			<rect x="267" y="135.5" fill="#FFCD60" width="16.1" height="10.8"/>
			<path fill="#40002F" d="M283.1,149.3H267c-1.6,0-2.9-1.3-2.9-2.9v-10.8c0-1.6,1.3-2.9,2.9-2.9h16.1c1.6,0,2.9,1.3,2.9,2.9v10.8
				C286,148,284.7,149.3,283.1,149.3z M270,143.4h10.2v-5H270V143.4z"/>
			<rect x="267.2" y="235.5" fill="#FFCD60" width="24.4" height="24.4"/>
			<path fill="#40002F" d="M291.6,262.8h-24.4c-1.6,0-2.9-1.3-2.9-2.9v-24.4c0-1.6,1.3-2.9,2.9-2.9h24.4c1.6,0,2.9,1.3,2.9,2.9v24.4
				C294.5,261.5,293.2,262.8,291.6,262.8z M270.1,257h18.6v-18.6h-18.6V257z"/>
			<rect x="269.5" y="164" fill="#FFCD60" width="11.2" height="9.5"/>
			<path fill="#40002F" d="M280.7,176.4h-11.2c-1.6,0-2.9-1.3-2.9-2.9V164c0-1.6,1.3-2.9,2.9-2.9h11.2c1.6,0,2.9,1.3,2.9,2.9v9.5
				C283.6,175.1,282.3,176.4,280.7,176.4z M272.4,170.6h5.3v-3.6h-5.3V170.6z"/>
			<path fill="#40002F" d="M313.8,273.3c-6.9,0-12.6-5.6-12.6-12.6v-22.1c0-1.6,1.3-2.9,2.9-2.9h19.3c1.6,0,2.9,1.3,2.9,2.9v22.1
				C326.4,267.7,320.7,273.3,313.8,273.3z M307.1,241.6v19.1c0,3.7,3,6.7,6.7,6.7s6.7-3,6.7-6.7v-19.1H307.1z"/>
			<path fill="#40002F" d="M313.8,285c-1.6,0-2.9-1.3-2.9-2.9v-11.7c0-1.6,1.3-2.9,2.9-2.9c1.6,0,2.9,1.3,2.9,2.9v11.7
				C316.8,283.7,315.4,285,313.8,285z"/>
			<path fill="#40002F" d="M321.1,285h-15c-1.6,0-2.9-1.3-2.9-2.9c0-1.6,1.3-2.9,2.9-2.9h15c1.6,0,2.9,1.3,2.9,2.9
				C324,283.7,322.7,285,321.1,285z"/>
			<path fill="#F49CC3" d="M304.2,254.5v6.2c0,5.3,4.3,9.6,9.6,9.6h0c5.3,0,9.6-4.3,9.6-9.6v-6.2H304.2z"/>
			<path fill="#40002F" d="M313.8,273.3c-6.9,0-12.6-5.6-12.6-12.6v-6.2c0-1.6,1.3-2.9,2.9-2.9h19.3c1.6,0,2.9,1.3,2.9,2.9v6.2
				C326.4,267.7,320.7,273.3,313.8,273.3z M307.1,257.5v3.3c0,3.7,3,6.7,6.7,6.7c3.7,0,6.7-3,6.7-6.7v-3.3H307.1z"/>
		</g>
		<g>
			<path fill="#5DBF8C" d="M584.1,783.2h-72.7c-3.2,0-5.8-2.3-6.3-5.4l-2.4-16.6h90.2l-2.4,16.6
				C589.9,780.9,587.2,783.2,584.1,783.2z"/>
			<path fill="#40002F" d="M584.1,786.1h-72.7c-4.6,0-8.5-3.4-9.2-7.9l-2.4-16.6c-0.1-0.8,0.1-1.7,0.7-2.3c0.6-0.6,1.4-1,2.2-1h90.2
				c0.9,0,1.7,0.4,2.2,1c0.6,0.6,0.8,1.5,0.7,2.3l-2.4,16.6C592.6,782.7,588.7,786.1,584.1,786.1z M506.1,764.1l2,13.3
				c0.2,1.7,1.7,2.9,3.4,2.9h72.7c1.7,0,3.2-1.3,3.4-2.9l2-13.3H506.1z"/>
			<path fill="#40002F" d="M607,767.8h-14.5c-1.6,0-2.9-1.3-2.9-2.9s1.3-2.9,2.9-2.9H607c1.6,0,2.9,1.3,2.9,2.9
				S608.6,767.8,607,767.8z"/>
			<path fill="#FFCD60" d="M653.9,770.4h-50.8v-10.6h50.8c2.9,0,5.3,2.4,5.3,5.3l0,0C659.2,768,656.8,770.4,653.9,770.4z"/>
			<path fill="#40002F" d="M653.9,773.3h-50.8c-1.6,0-2.9-1.3-2.9-2.9v-10.6c0-1.6,1.3-2.9,2.9-2.9h50.8c4.5,0,8.2,3.7,8.2,8.2
				C662.1,769.6,658.4,773.3,653.9,773.3z M606,767.5h47.9c1.3,0,2.4-1.1,2.4-2.4c0-1.3-1.1-2.4-2.4-2.4H606V767.5z"/>
			<path fill="#40002F" d="M516.1,753.3c-0.7,0-1.3-0.2-1.9-0.7c-4.9-4.2-3.1-7.7-1.9-9.8c0.9-1.7,1.5-2.8,0.3-5.5
				c-0.7-1.5-0.1-3.2,1.4-3.9c1.5-0.7,3.2-0.1,3.9,1.4c2.6,5.3,0.7,8.7-0.4,10.8c-0.2,0.4-0.6,1-0.6,1.3c0,0.1,0.3,0.5,1.2,1.3
				c1.2,1,1.4,2.9,0.3,4.1C517.8,752.9,517,753.3,516.1,753.3z"/>
			<path fill="#40002F" d="M536.4,753.3c-0.7,0-1.3-0.2-1.9-0.7c-4.9-4.2-3.1-7.7-1.9-9.8c0.9-1.7,1.5-2.8,0.3-5.5
				c-0.7-1.5-0.1-3.2,1.4-3.9c1.5-0.7,3.2-0.1,3.9,1.4c2.6,5.3,0.7,8.7-0.4,10.8c-0.2,0.4-0.6,1-0.6,1.3c0,0.1,0.3,0.5,1.2,1.3
				c1.2,1,1.4,2.9,0.3,4.1C538.1,752.9,537.3,753.3,536.4,753.3z"/>
			<path fill="#40002F" d="M556.7,753.3c-0.7,0-1.3-0.2-1.9-0.7c-4.9-4.2-3.1-7.7-1.9-9.8c0.9-1.7,1.5-2.8,0.3-5.5
				c-0.7-1.5-0.1-3.2,1.4-3.9c1.5-0.7,3.2-0.1,3.9,1.4c2.6,5.3,0.7,8.7-0.4,10.8c-0.2,0.4-0.6,1-0.6,1.3c0,0.1,0.3,0.5,1.2,1.3
				c1.2,1,1.4,2.9,0.3,4.1C558.4,752.9,557.6,753.3,556.7,753.3z"/>
			<path fill="#40002F" d="M577.1,753.3c-0.7,0-1.3-0.2-1.9-0.7c-4.9-4.2-3.1-7.7-1.9-9.8c0.9-1.7,1.5-2.8,0.3-5.5
				c-0.7-1.5-0.1-3.2,1.4-3.9c1.5-0.7,3.2-0.1,3.9,1.4c2.6,5.3,0.7,8.7-0.4,10.8c-0.2,0.4-0.6,1-0.6,1.3c0,0.1,0.3,0.5,1.2,1.3
				c1.2,1,1.4,2.9,0.3,4.1C578.7,752.9,577.9,753.3,577.1,753.3z"/>
		</g>
		<g>
			<path fill="#9FDDF9" d="M273.8,547.4h34.4c1.8,0,3.5-0.6,4.8-1.8c7.7-6.9,12.6-17.4,12.6-29.1c0-20.8-15.5-54.4-34.5-54.4
				c-19.1,0-34.5,33.6-34.5,54.4c0,11.6,4.8,22,12.4,29C270.3,546.7,272,547.4,273.8,547.4z"/>
			<path fill="#40002F" d="M308.2,550.3h-34.4c-2.5,0-5-1-6.9-2.7c-8.5-7.7-13.4-19.1-13.4-31.1c0-11.1,4-25.1,10.5-36.5
				c7.7-13.5,17.2-20.9,27-20.9c9.7,0,19.3,7.4,27,20.9c6.5,11.4,10.5,25.4,10.5,36.5c0,12.1-4.9,23.5-13.5,31.3
				C313.1,549.4,310.7,550.3,308.2,550.3z M291,465c-7.4,0-15.4,6.5-21.9,17.9c-5.9,10.4-9.7,23.6-9.7,33.6
				c0,10.4,4.2,20.2,11.5,26.8c0.8,0.7,1.9,1.2,2.9,1.2h34.4c1.1,0,2.1-0.4,2.8-1c7.4-6.6,11.6-16.5,11.6-26.9
				c0-10-3.8-23.2-9.7-33.6C306.4,471.5,298.5,465,291,465z"/>
			<path fill="#40002F" d="M271.1,510.4c-1.3,0-2.3-1-2.3-2.3v-7.5c0-1.3,1-2.3,2.3-2.3s2.3,1,2.3,2.3v7.5
				C273.4,509.4,272.4,510.4,271.1,510.4z"/>
			<path fill="#40002F" d="M310.9,510.4c-1.3,0-2.3-1-2.3-2.3v-7.5c0-1.3,1-2.3,2.3-2.3s2.3,1,2.3,2.3v7.5
				C313.2,509.4,312.2,510.4,310.9,510.4z"/>
			<path fill="#40002F" d="M324.9,510.4h-67.7c-1.3,0-2.3-1-2.3-2.3s1-2.3,2.3-2.3h67.7c1.3,0,2.3,1,2.3,2.3
				S326.1,510.4,324.9,510.4z"/>
			<path fill="#40002F" d="M291,510.4c-1.3,0-2.3-1-2.3-2.3v-7.5c0-1.3,1-2.3,2.3-2.3s2.3,1,2.3,2.3v7.5
				C293.3,509.4,292.3,510.4,291,510.4z"/>
			<polygon fill="#F49CC3" points="285.7,526.3 291,515.1 296.4,526.3 			"/>
			<path fill="#40002F" d="M296.4,528.4h-10.7c-0.7,0-1.4-0.4-1.8-1c-0.4-0.6-0.4-1.4-0.1-2l5.4-11.1c0.4-0.7,1.1-1.2,1.9-1.2
				s1.6,0.5,1.9,1.2l5.4,11.1c0.3,0.7,0.3,1.4-0.1,2C297.8,528,297.1,528.4,296.4,528.4z M289,524.2h4l-2-4.2L289,524.2z"/>
		</g>
		<g>
			<path fill="#FFCD60" d="M780.7,208.7v70.1h113.8v-70.1H780.7z M805.3,258.8c0,2.5-2,4.5-4.5,4.5h-2c-2.5,0-4.5-2-4.5-4.5v-30
				c0-2.5,2-4.5,4.5-4.5h2c2.5,0,4.5,2,4.5,4.5V258.8z"/>
			<path fill="#40002F" d="M894.5,281.8H780.7c-1.6,0-2.9-1.3-2.9-2.9v-70.1c0-1.6,1.3-2.9,2.9-2.9h113.8c1.6,0,2.9,1.3,2.9,2.9
				v70.1C897.4,280.4,896.1,281.8,894.5,281.8z M783.6,275.9h108v-64.2h-108V275.9z M800.8,266.2h-2c-4.1,0-7.4-3.3-7.4-7.4v-30
				c0-4.1,3.3-7.4,7.4-7.4h2c4.1,0,7.4,3.3,7.4,7.4v30C808.2,262.9,804.9,266.2,800.8,266.2z M798.7,227.2c-0.9,0-1.5,0.7-1.5,1.5
				v30c0,0.9,0.7,1.5,1.5,1.5h2c0.9,0,1.5-0.7,1.5-1.5v-30c0-0.9-0.7-1.5-1.5-1.5H798.7z"/>
			<path fill="#9FDDF9" d="M880.8,258.8l7.6-13.6L839.5,218v0c-1.6,9.8,3.2,19.6,11.9,24.4L880.8,258.8z"/>
			<path fill="#40002F" d="M880.8,261.7c-0.5,0-1-0.1-1.4-0.4L849.9,245c-9.7-5.4-15.1-16.4-13.3-27.4c0.1-0.9,0.8-1.8,1.6-2.2
				c0.9-0.4,1.9-0.4,2.7,0.1l48.9,27.1c0.7,0.4,1.2,1,1.4,1.8c0.2,0.7,0.1,1.5-0.3,2.2l-7.6,13.6
				C882.8,261.1,881.8,261.7,880.8,261.7z M842.1,222.8c0.4,7,4.3,13.5,10.6,17l26.9,14.9l4.7-8.5L842.1,222.8z"/>
			<path fill="#9FDDF9" d="M918.5,267L918.5,267c1.2-2.3,0.3-5.2-2-6.5l-28.2-15.4l-4.5,8.6l28,15.3
				C914.3,270.3,917.3,269.4,918.5,267z"/>
			<path fill="#40002F" d="M914.2,272.5c-1.3,0-2.5-0.3-3.7-0.9l-28-15.3c-1.4-0.8-1.9-2.5-1.2-3.9l4.5-8.6c0.4-0.7,1-1.2,1.7-1.4
				c0.7-0.2,1.6-0.1,2.3,0.2l28.2,15.4c3.7,2,5.1,6.7,3.2,10.4v0c-1,1.9-2.6,3.2-4.6,3.8C915.8,272.4,915,272.5,914.2,272.5z
				 M887.8,252.5l25.5,13.9c0.5,0.2,1,0.3,1.5,0.1c0.5-0.1,0.9-0.5,1.1-0.9c0,0,0,0,0,0c0.5-0.9,0.1-2.1-0.8-2.5l-25.6-13.9
				L887.8,252.5z"/>
		</g>
		<g>
			<path fill="#F49CC3" d="M892.3,712.8h-54.1c-20.2,0-36.6,16.4-36.6,36.6v27.8h98.1v-56.9C899.7,716.1,896.4,712.8,892.3,712.8z
				 M889.2,742.8c0,7.7-6.3,14-14,14h-30.9c-7.7,0-14-6.3-14-14l0,0c0-7.7,6.3-14,14-14h30.9C882.9,728.9,889.2,735.1,889.2,742.8
				L889.2,742.8z"/>
			<path fill="#40002F" d="M899.7,780h-98.1c-1.6,0-2.9-1.3-2.9-2.9v-27.8c0-21.8,17.7-39.5,39.5-39.5h54.1
				c5.7,0,10.4,4.7,10.4,10.4v56.9C902.7,778.7,901.4,780,899.7,780z M804.5,774.2h92.3v-53.9c0-2.5-2-4.5-4.5-4.5h-54.1
				c-18.5,0-33.6,15.1-33.6,33.6V774.2z M875.2,759.7h-30.9c-9.3,0-16.9-7.6-16.9-16.9c0-9.3,7.6-16.9,16.9-16.9h30.9
				c9.3,0,16.9,7.6,16.9,16.9C892.1,752.2,884.5,759.7,875.2,759.7z M844.3,731.8c-6.1,0-11,5-11,11c0,6.1,5,11,11,11h30.9
				c6.1,0,11-5,11-11c0-6.1-5-11-11-11H844.3z"/>
			<rect x="809.1" y="777.1" fill="#40002F" width="5.8" height="20.5"/>
			<path fill="#40002F" d="M817.5,847.4h-10.4c-5.6,0-10.1-4.5-10.1-10.1v-32.6c0-5.6,4.5-10.1,10.1-10.1h10.4
				c5.6,0,10.1,4.5,10.1,10.1v32.6C827.6,842.9,823.1,847.4,817.5,847.4z M807.1,800.5c-2.3,0-4.2,1.9-4.2,4.2v32.6
				c0,2.3,1.9,4.2,4.2,4.2h10.4c2.3,0,4.2-1.9,4.2-4.2v-32.6c0-2.3-1.9-4.2-4.2-4.2H807.1z"/>
			<rect x="809.1" y="798.6" fill="#40002F" width="5.8" height="45.9"/>
			<rect x="801.6" y="750.3" fill="#9FDDF9" width="18.1" height="26.9"/>
			<path fill="#40002F" d="M819.7,780h-18.1c-1.6,0-2.9-1.3-2.9-2.9v-26.9c0-1.6,1.3-2.9,2.9-2.9h18.1c1.6,0,2.9,1.3,2.9,2.9v26.9
				C822.6,778.7,821.3,780,819.7,780z M804.5,774.2h12.2v-21h-12.2V774.2z"/>
			<path fill="#40002F" d="M812.1,766.8h-10.5c-1.6,0-2.9-1.3-2.9-2.9s1.3-2.9,2.9-2.9h10.5c1.6,0,2.9,1.3,2.9,2.9
				S813.7,766.8,812.1,766.8z"/>
		</g>
		<g>
			<path fill="#FFCD60" d="M625.5,540.3H504.4c-2.9,0-5.3-2.4-5.3-5.3v-70.6c0-2.9,2.4-5.3,5.3-5.3h121.1c2.9,0,5.3,2.4,5.3,5.3V535
				C630.7,537.9,628.4,540.3,625.5,540.3z"/>
			<path fill="#40002F" d="M625.5,543.2H504.4c-4.5,0-8.2-3.7-8.2-8.2v-70.6c0-4.5,3.7-8.2,8.2-8.2h121.1c4.5,0,8.2,3.7,8.2,8.2V535
				C633.7,539.5,630,543.2,625.5,543.2z M504.4,462c-1.3,0-2.3,1.1-2.3,2.3V535c0,1.3,1.1,2.3,2.3,2.3h121.1c1.3,0,2.3-1.1,2.3-2.3
				v-70.6c0-1.3-1.1-2.3-2.3-2.3H504.4z"/>
			<path fill="#9FDDF9" d="M593,527h-72.1c-5.1,0-9.3-4.1-9.3-9.3V481c0-5.1,4.1-9.3,9.3-9.3H593c5.1,0,9.3,4.1,9.3,9.3v36.7
				C602.3,522.8,598.2,527,593,527z"/>
			<path fill="#40002F" d="M593,529.9h-72.1c-6.7,0-12.2-5.5-12.2-12.2V481c0-6.7,5.5-12.2,12.2-12.2H593c6.7,0,12.2,5.5,12.2,12.2
				v36.7C605.2,524.5,599.8,529.9,593,529.9z M520.9,474.7c-3.5,0-6.3,2.8-6.3,6.3v36.7c0,3.5,2.8,6.3,6.3,6.3H593
				c3.5,0,6.3-2.8,6.3-6.3V481c0-3.5-2.8-6.3-6.3-6.3H520.9z"/>
			<circle fill="#9FDDF9" cx="616.8" cy="482" r="7.5"/>
			<path fill="#40002F" d="M616.8,492.4c-5.7,0-10.4-4.7-10.4-10.4c0-5.7,4.7-10.4,10.4-10.4c5.7,0,10.4,4.7,10.4,10.4
				C627.2,487.7,622.5,492.4,616.8,492.4z M616.8,477.4c-2.5,0-4.5,2-4.5,4.5c0,2.5,2,4.5,4.5,4.5c2.5,0,4.5-2,4.5-4.5
				C621.3,479.5,619.3,477.4,616.8,477.4z"/>
			<path fill="#40002F" d="M622.1,504.7h-11c-1.6,0-2.9-1.3-2.9-2.9c0-1.6,1.3-2.9,2.9-2.9h11c1.6,0,2.9,1.3,2.9,2.9
				C625.1,503.4,623.7,504.7,622.1,504.7z"/>
			<g>
				<rect x="519.1" y="540.3" fill="#9FDDF9" width="16.9" height="8.5"/>
				<rect x="593.9" y="540.3" fill="#9FDDF9" width="16.9" height="8.5"/>
			</g>
			<path fill="#40002F" d="M622.1,514.2h-11c-1.6,0-2.9-1.3-2.9-2.9c0-1.6,1.3-2.9,2.9-2.9h11c1.6,0,2.9,1.3,2.9,2.9
				C625.1,512.8,623.7,514.2,622.1,514.2z"/>
			<g>
				<path fill="#40002F" d="M536,551.7h-16.9c-1.6,0-2.9-1.3-2.9-2.9v-8.5c0-1.6,1.3-2.9,2.9-2.9H536c1.6,0,2.9,1.3,2.9,2.9v8.5
					C538.9,550.4,537.6,551.7,536,551.7z M522.1,545.8h11v-2.6h-11V545.8z"/>
				<path fill="#40002F" d="M610.8,551.7h-16.9c-1.6,0-2.9-1.3-2.9-2.9v-8.5c0-1.6,1.3-2.9,2.9-2.9h16.9c1.6,0,2.9,1.3,2.9,2.9v8.5
					C613.7,550.4,612.4,551.7,610.8,551.7z M596.8,545.8h11v-2.6h-11V545.8z"/>
			</g>
			<path fill="#40002F" d="M527.6,514.2c-0.8,0-1.5-0.3-2.1-0.9c-1.1-1.1-1.1-3,0-4.1l29.4-29.2c1.1-1.1,3-1.1,4.1,0
				c1.1,1.1,1.1,3,0,4.1l-29.4,29.2C529.1,513.9,528.3,514.2,527.6,514.2z"/>
			<path fill="#40002F" d="M550.5,509.5c-0.7,0-1.4-0.3-2-0.8c-1.2-1.1-1.2-3-0.1-4.1l9.3-9.9c1.1-1.2,3-1.2,4.1-0.1
				c1.2,1.1,1.2,3,0.1,4.1l-9.3,9.9C552.1,509.2,551.3,509.5,550.5,509.5z"/>
		</g>
	</g>
</g>
</svg>
