<?xml version="1.0" encoding="utf-8"?>
<!-- Generator: Adobe Illustrator 19.2.1, SVG Export Plug-In . SVG Version: 6.00 Build 0)  -->
<svg version="1.1" xmlns="http://www.w3.org/2000/svg" xmlns:xlink="http://www.w3.org/1999/xlink" x="0px" y="0px" width="1400px"
	 height="980px" viewBox="0 0 1400 980" enable-background="new 0 0 1400 980" xml:space="preserve">
<g id="Layer_2">
	<rect fill="#FFFFFF" width="1400" height="980"/>
</g>
<g id="Layer_1">
	<g>
		<g>
			<path fill="#C9EBFC" d="M1077,455.3h-52.7c-9.8,0-18.3-6.9-20.3-16.5l-1.2-5.9h95.6l-1.2,5.9
				C1095.2,448.4,1086.8,455.3,1077,455.3z"/>
			<path fill="#B6DBED" d="M1087.1,432.8l-1.2,5.9c-2,9.6-10.4,16.5-20.3,16.5h11.3c9.8,0,18.3-6.9,20.3-16.5l1.2-5.9H1087.1z"/>
			<path fill="#00556E" d="M1077,457.5h-52.7c-10.8,0-20.3-7.7-22.4-18.3l-1.2-5.9c-0.1-0.7,0-1.3,0.5-1.8c0.4-0.5,1.1-0.8,1.7-0.8
				h95.6c0.7,0,1.3,0.3,1.7,0.8c0.4,0.5,0.6,1.2,0.5,1.8l-1.2,5.9C1097.2,449.8,1087.8,457.5,1077,457.5z M1005.5,435.1l0.7,3.3
				c1.8,8.5,9.4,14.7,18.1,14.7h52.7c8.7,0,16.3-6.2,18.1-14.7l0.7-3.3H1005.5z"/>
			<rect x="1047.2" y="455.3" fill="#C9EBFC" width="6.8" height="14.8"/>
			<path fill="#00556E" d="M1056.2,472.3H1045v-19.2h11.3V472.3z M1049.4,467.9h2.4v-10.3h-2.4V467.9z"/>
			<path fill="#E28EBC" d="M1098.4,549h-95.6l1.6-34.8c1.2-24.7,21.5-44.1,46.2-44.1h0c24.7,0,45,19.4,46.2,44.1L1098.4,549z"/>
			<path fill="#F6ADCD" d="M1054.3,470.2c-1.2-0.1-2.5-0.1-3.7-0.1l0,0c-24.7,0-45,19.4-46.2,44.1l-1.6,34.8h7.4l1.6-34.8
				C1012.9,490.7,1031.3,472,1054.3,470.2z"/>
			<path fill="#CF78B1" d="M1096.8,514.1c-1.2-24.7-21.5-44.1-46.2-44.1l0,0c-1.4,0-2.9,0.1-4.3,0.2c22.7,2.1,40.8,20.6,41.9,43.9
				l1.6,34.8h8.5L1096.8,514.1z"/>
			<path fill="#00556E" d="M1100.8,551.2h-100.3l1.7-37.2c1.2-25.9,22.5-46.2,48.4-46.2s47.2,20.3,48.4,46.2L1100.8,551.2z
				 M1005.1,546.8h91l-1.5-32.5c-1.1-23.5-20.4-42-44-42s-42.9,18.4-44,42L1005.1,546.8z"/>
			<circle fill="#C9EBFC" cx="1050.6" cy="507.6" r="29.1"/>
			<path fill="#00556E" d="M1050.6,538.9c-17.3,0-31.3-14-31.3-31.3c0-17.3,14-31.3,31.3-31.3c17.3,0,31.3,14,31.3,31.3
				C1081.9,524.9,1067.9,538.9,1050.6,538.9z M1050.6,480.8c-14.8,0-26.8,12-26.8,26.8c0,14.8,12,26.8,26.8,26.8
				c14.8,0,26.8-12,26.8-26.8C1077.4,492.8,1065.4,480.8,1050.6,480.8z"/>
			<circle fill="#00556E" cx="1050.6" cy="507.6" r="5"/>
			<g>
				<path fill="#00556E" d="M1050.6,493.8c-1.2,0-2.2-1-2.2-2.2v-4.3c0-1.2,1-2.2,2.2-2.2c1.2,0,2.2,1,2.2,2.2v4.3
					C1052.8,492.8,1051.8,493.8,1050.6,493.8z"/>
				<path fill="#00556E" d="M1050.6,531.6c-1.2,0-2.2-1-2.2-2.2v-4.3c0-1.2,1-2.2,2.2-2.2c1.2,0,2.2,1,2.2,2.2v4.3
					C1052.8,530.6,1051.8,531.6,1050.6,531.6z"/>
			</g>
			<g>
				<path fill="#00556E" d="M1071.6,510.6h-4.3c-1.2,0-2.2-1-2.2-2.2c0-1.2,1-2.2,2.2-2.2h4.3c1.2,0,2.2,1,2.2,2.2
					C1073.8,509.6,1072.8,510.6,1071.6,510.6z"/>
				<path fill="#00556E" d="M1033.9,510.6h-4.3c-1.2,0-2.2-1-2.2-2.2c0-1.2,1-2.2,2.2-2.2h4.3c1.2,0,2.2,1,2.2,2.2
					C1036.1,509.6,1035.1,510.6,1033.9,510.6z"/>
			</g>
		</g>
		<g>
			<rect x="959.1" y="243.9" fill="#E28EBC" width="165.4" height="8.9"/>
			<path fill="#00556E" d="M1124.5,255H959.1c-1.2,0-2.2-1-2.2-2.2v-8.9c0-1.2,1-2.2,2.2-2.2h165.4c1.2,0,2.2,1,2.2,2.2v8.9
				C1126.7,254,1125.7,255,1124.5,255z M961.3,250.6h160.9v-4.4H961.3V250.6z"/>
			<path fill="#E28EBC" d="M1041.8,177.9L1041.8,177.9c-2.5,0-4.5,2-4.5,4.5v10h8.9v-10C1046.2,179.9,1044.2,177.9,1041.8,177.9z"/>
			<path fill="#00556E" d="M1046.2,194.5h-8.9c-1.2,0-2.2-1-2.2-2.2v-10c0-3.7,3-6.7,6.7-6.7s6.7,3,6.7,6.7v10
				C1048.4,193.5,1047.4,194.5,1046.2,194.5z M1039.5,190.1h4.5v-7.8c0-1.2-1-2.2-2.2-2.2s-2.2,1-2.2,2.2V190.1z"/>
			<path fill="#C9EBFC" d="M1033.2,191.2h17.2c29.1,0,52.7,23.6,52.7,52.7v0H980.4v0C980.4,214.8,1004,191.2,1033.2,191.2z"/>
			<path fill="#ADD0E1" d="M1050.4,191.2h-15.2c29.1,0,52.7,23.6,52.7,52.7v0h15.2v0C1103.1,214.8,1079.5,191.2,1050.4,191.2z"/>
			<path fill="#00556E" d="M1103.1,246.2H980.4c-1.2,0-2.2-1-2.2-2.2c0-30.3,24.6-54.9,54.9-54.9h17.2c30.3,0,54.9,24.6,54.9,54.9
				C1105.3,245.2,1104.3,246.2,1103.1,246.2z M982.7,241.7h118.1c-1.2-26.8-23.4-48.3-50.5-48.3h-17.2
				C1006.1,193.4,983.9,214.9,982.7,241.7z"/>
			<path fill="#00556E" d="M999,219.8c-0.4,0-0.8-0.1-1.2-0.4c-1-0.7-1.3-2.1-0.6-3.1c12.4-18.7,32.3-18.9,33.2-18.9
				c1.2,0,2.2,1,2.2,2.2c0,1.2-1,2.2-2.2,2.2l0,0c-0.2,0-18.5,0.3-29.5,16.9C1000.4,219.4,999.7,219.8,999,219.8z"/>
		</g>
		<g>
			<polygon fill="#C9EBFC" points="382.3,811.6 301.8,811.6 307.1,713.1 377,713.1 			"/>
			<path fill="#00556E" d="M382.3,814.1h-80.5c-0.7,0-1.3-0.3-1.8-0.8c-0.5-0.5-0.7-1.1-0.7-1.8l5.3-98.6c0.1-1.3,1.1-2.3,2.4-2.3
				h70c1.3,0,2.3,1,2.4,2.3l5.3,98.6c0,0.7-0.2,1.3-0.7,1.8C383.6,813.8,383,814.1,382.3,814.1z M304.3,809.2h75.4l-5-93.7h-65.4
				L304.3,809.2z"/>
			<rect x="307.1" y="702.9" fill="#83C3EB" width="69.9" height="10.2"/>
			<path fill="#00556E" d="M377,715.5h-69.9c-1.3,0-2.4-1.1-2.4-2.4v-10.2c0-1.3,1.1-2.4,2.4-2.4H377c1.3,0,2.4,1.1,2.4,2.4v10.2
				C379.4,714.4,378.3,715.5,377,715.5z M309.5,710.7h65.1v-5.4h-65.1V710.7z"/>
			<path fill="#00556E" d="M357.2,705.3h-30.2c-1.3,0-2.4-1.1-2.4-2.4v-3c0-6.7,5.4-12.1,12.1-12.1h10.8c6.7,0,12.1,5.4,12.1,12.1v3
				C359.6,704.2,358.5,705.3,357.2,705.3z M329.4,700.5h25.4v-0.6c0-4-3.3-7.3-7.3-7.3h-10.8c-4,0-7.3,3.3-7.3,7.3V700.5z"/>
			<path fill="#00556E" d="M382.3,715.5h-79.4c-1.3,0-2.4-1.1-2.4-2.4s1.1-2.4,2.4-2.4h79.4c1.3,0,2.4,1.1,2.4,2.4
				S383.7,715.5,382.3,715.5z"/>
			<g>
				<circle fill="#83C3EB" cx="319.8" cy="726.7" r="3.6"/>
				<circle fill="#83C3EB" cx="334.9" cy="726.7" r="3.6"/>
				<circle fill="#83C3EB" cx="348.9" cy="726.7" r="3.6"/>
				<circle fill="#83C3EB" cx="364.1" cy="726.7" r="3.6"/>
				<g>
					<circle fill="#83C3EB" cx="318.6" cy="745.1" r="3.6"/>
					<circle fill="#83C3EB" cx="334.1" cy="745.1" r="3.6"/>
					<circle fill="#83C3EB" cx="349.7" cy="745.1" r="3.6"/>
					<circle fill="#83C3EB" cx="365.3" cy="745.1" r="3.6"/>
				</g>
				<circle fill="#83C3EB" cx="317.8" cy="763.5" r="3.6"/>
				<circle fill="#83C3EB" cx="334.1" cy="763.5" r="3.6"/>
				<circle fill="#83C3EB" cx="349.7" cy="763.5" r="3.6"/>
				<circle fill="#83C3EB" cx="366.1" cy="763.5" r="3.6"/>
				<circle fill="#83C3EB" cx="316.9" cy="781.9" r="3.6"/>
				<circle fill="#83C3EB" cx="334.1" cy="781.9" r="3.6"/>
				<circle fill="#83C3EB" cx="349.7" cy="781.9" r="3.6"/>
				<circle fill="#83C3EB" cx="366.9" cy="781.9" r="3.6"/>
				<circle fill="#83C3EB" cx="315.3" cy="800.3" r="3.6"/>
				<circle fill="#83C3EB" cx="334.1" cy="800.3" r="3.6"/>
				<circle fill="#83C3EB" cx="349.7" cy="800.3" r="3.6"/>
				<circle fill="#83C3EB" cx="368.5" cy="800.3" r="3.6"/>
			</g>
			<g>
				<path fill="#00556E" d="M319.8,732.1c-3,0-5.4-2.4-5.4-5.4c0-3,2.4-5.4,5.4-5.4c3,0,5.4,2.4,5.4,5.4
					C325.2,729.7,322.8,732.1,319.8,732.1z M319.8,724.9c-1,0-1.8,0.8-1.8,1.8s0.8,1.8,1.8,1.8s1.8-0.8,1.8-1.8
					S320.8,724.9,319.8,724.9z"/>
				<path fill="#00556E" d="M334.9,732.1c-3,0-5.4-2.4-5.4-5.4c0-3,2.4-5.4,5.4-5.4c3,0,5.4,2.4,5.4,5.4
					C340.4,729.7,337.9,732.1,334.9,732.1z M334.9,724.9c-1,0-1.8,0.8-1.8,1.8s0.8,1.8,1.8,1.8s1.8-0.8,1.8-1.8
					S335.9,724.9,334.9,724.9z"/>
				<path fill="#00556E" d="M348.9,732.1c-3,0-5.4-2.4-5.4-5.4c0-3,2.4-5.4,5.4-5.4s5.4,2.4,5.4,5.4
					C354.3,729.7,351.9,732.1,348.9,732.1z M348.9,724.9c-1,0-1.8,0.8-1.8,1.8s0.8,1.8,1.8,1.8s1.8-0.8,1.8-1.8
					S349.9,724.9,348.9,724.9z"/>
				<path fill="#00556E" d="M364.1,732.1c-3,0-5.4-2.4-5.4-5.4c0-3,2.4-5.4,5.4-5.4c3,0,5.4,2.4,5.4,5.4
					C369.5,729.7,367.1,732.1,364.1,732.1z M364.1,724.9c-1,0-1.8,0.8-1.8,1.8s0.8,1.8,1.8,1.8s1.8-0.8,1.8-1.8
					S365.1,724.9,364.1,724.9z"/>
				<g>
					<path fill="#00556E" d="M318.6,750.5c-3,0-5.4-2.4-5.4-5.4c0-3,2.4-5.4,5.4-5.4c3,0,5.4,2.4,5.4,5.4
						C324,748.1,321.5,750.5,318.6,750.5z M318.6,743.3c-1,0-1.8,0.8-1.8,1.8c0,1,0.8,1.8,1.8,1.8c1,0,1.8-0.8,1.8-1.8
						C320.4,744.1,319.5,743.3,318.6,743.3z"/>
					<path fill="#00556E" d="M334.1,750.5c-3,0-5.4-2.4-5.4-5.4c0-3,2.4-5.4,5.4-5.4c3,0,5.4,2.4,5.4,5.4
						C339.6,748.1,337.1,750.5,334.1,750.5z M334.1,743.3c-1,0-1.8,0.8-1.8,1.8c0,1,0.8,1.8,1.8,1.8s1.8-0.8,1.8-1.8
						C335.9,744.1,335.1,743.3,334.1,743.3z"/>
					<path fill="#00556E" d="M349.7,750.5c-3,0-5.4-2.4-5.4-5.4c0-3,2.4-5.4,5.4-5.4c3,0,5.4,2.4,5.4,5.4
						C355.1,748.1,352.7,750.5,349.7,750.5z M349.7,743.3c-1,0-1.8,0.8-1.8,1.8c0,1,0.8,1.8,1.8,1.8s1.8-0.8,1.8-1.8
						C351.5,744.1,350.7,743.3,349.7,743.3z"/>
					<path fill="#00556E" d="M365.3,750.5c-3,0-5.4-2.4-5.4-5.4c0-3,2.4-5.4,5.4-5.4c3,0,5.4,2.4,5.4,5.4
						C370.7,748.1,368.3,750.5,365.3,750.5z M365.3,743.3c-1,0-1.8,0.8-1.8,1.8c0,1,0.8,1.8,1.8,1.8c1,0,1.8-0.8,1.8-1.8
						C367.1,744.1,366.3,743.3,365.3,743.3z"/>
				</g>
				<path fill="#00556E" d="M317.8,768.9c-3,0-5.4-2.4-5.4-5.4c0-3,2.4-5.4,5.4-5.4c3,0,5.4,2.4,5.4,5.4
					C323.2,766.5,320.7,768.9,317.8,768.9z M317.8,761.7c-1,0-1.8,0.8-1.8,1.8s0.8,1.8,1.8,1.8s1.8-0.8,1.8-1.8
					S318.7,761.7,317.8,761.7z"/>
				<path fill="#00556E" d="M334.1,768.9c-3,0-5.4-2.4-5.4-5.4c0-3,2.4-5.4,5.4-5.4c3,0,5.4,2.4,5.4,5.4
					C339.6,766.5,337.1,768.9,334.1,768.9z M334.1,761.7c-1,0-1.8,0.8-1.8,1.8s0.8,1.8,1.8,1.8s1.8-0.8,1.8-1.8
					S335.1,761.7,334.1,761.7z"/>
				<path fill="#00556E" d="M349.7,768.9c-3,0-5.4-2.4-5.4-5.4c0-3,2.4-5.4,5.4-5.4c3,0,5.4,2.4,5.4,5.4
					C355.1,766.5,352.7,768.9,349.7,768.9z M349.7,761.7c-1,0-1.8,0.8-1.8,1.8s0.8,1.8,1.8,1.8s1.8-0.8,1.8-1.8
					S350.7,761.7,349.7,761.7z"/>
				<path fill="#00556E" d="M366.1,768.9c-3,0-5.4-2.4-5.4-5.4c0-3,2.4-5.4,5.4-5.4c3,0,5.4,2.4,5.4,5.4
					C371.5,766.5,369.1,768.9,366.1,768.9z M366.1,761.7c-1,0-1.8,0.8-1.8,1.8s0.8,1.8,1.8,1.8s1.8-0.8,1.8-1.8
					S367.1,761.7,366.1,761.7z"/>
				<path fill="#00556E" d="M316.9,787.3c-3,0-5.4-2.4-5.4-5.4s2.4-5.4,5.4-5.4c3,0,5.4,2.4,5.4,5.4S319.9,787.3,316.9,787.3z
					 M316.9,780.1c-1,0-1.8,0.8-1.8,1.8s0.8,1.8,1.8,1.8c1,0,1.8-0.8,1.8-1.8S317.9,780.1,316.9,780.1z"/>
				<path fill="#00556E" d="M334.1,787.3c-3,0-5.4-2.4-5.4-5.4s2.4-5.4,5.4-5.4c3,0,5.4,2.4,5.4,5.4S337.1,787.3,334.1,787.3z
					 M334.1,780.1c-1,0-1.8,0.8-1.8,1.8s0.8,1.8,1.8,1.8s1.8-0.8,1.8-1.8S335.1,780.1,334.1,780.1z"/>
				<path fill="#00556E" d="M349.7,787.3c-3,0-5.4-2.4-5.4-5.4s2.4-5.4,5.4-5.4c3,0,5.4,2.4,5.4,5.4S352.7,787.3,349.7,787.3z
					 M349.7,780.1c-1,0-1.8,0.8-1.8,1.8s0.8,1.8,1.8,1.8s1.8-0.8,1.8-1.8S350.7,780.1,349.7,780.1z"/>
				<path fill="#00556E" d="M366.9,787.3c-3,0-5.4-2.4-5.4-5.4s2.4-5.4,5.4-5.4c3,0,5.4,2.4,5.4,5.4S369.9,787.3,366.9,787.3z
					 M366.9,780.1c-1,0-1.8,0.8-1.8,1.8s0.8,1.8,1.8,1.8c1,0,1.8-0.8,1.8-1.8S367.9,780.1,366.9,780.1z"/>
				<path fill="#00556E" d="M315.3,805.8c-3,0-5.4-2.4-5.4-5.4s2.4-5.4,5.4-5.4c3,0,5.4,2.4,5.4,5.4S318.3,805.8,315.3,805.8z
					 M315.3,798.6c-1,0-1.8,0.8-1.8,1.8s0.8,1.8,1.8,1.8c1,0,1.8-0.8,1.8-1.8S316.3,798.6,315.3,798.6z"/>
				<path fill="#00556E" d="M334.1,805.8c-3,0-5.4-2.4-5.4-5.4s2.4-5.4,5.4-5.4c3,0,5.4,2.4,5.4,5.4S337.1,805.8,334.1,805.8z
					 M334.1,798.6c-1,0-1.8,0.8-1.8,1.8s0.8,1.8,1.8,1.8s1.8-0.8,1.8-1.8S335.1,798.6,334.1,798.6z"/>
				<path fill="#00556E" d="M349.7,805.8c-3,0-5.4-2.4-5.4-5.4s2.4-5.4,5.4-5.4c3,0,5.4,2.4,5.4,5.4S352.7,805.8,349.7,805.8z
					 M349.7,798.6c-1,0-1.8,0.8-1.8,1.8s0.8,1.8,1.8,1.8s1.8-0.8,1.8-1.8S350.7,798.6,349.7,798.6z"/>
				<path fill="#00556E" d="M368.5,805.8c-3,0-5.4-2.4-5.4-5.4s2.4-5.4,5.4-5.4c3,0,5.4,2.4,5.4,5.4S371.5,805.8,368.5,805.8z
					 M368.5,798.6c-1,0-1.8,0.8-1.8,1.8s0.8,1.8,1.8,1.8s1.8-0.8,1.8-1.8S369.5,798.6,368.5,798.6z"/>
			</g>
		</g>
		<g>
			<path fill="#E28EBC" d="M373.3,432.5h-73.7c-3.1,0-5.6,2.5-5.6,5.6v105.6c0,3.1,2.5,5.6,5.6,5.6h73.7c3.1,0,5.6-2.5,5.6-5.6
				V438.1C378.9,435,376.4,432.5,373.3,432.5z M364.3,446.8c0,3-2.4,5.4-5.4,5.4h-44.1c-3,0-5.4-2.4-5.4-5.4v-0.3
				c0-3,2.4-5.4,5.4-5.4h44.1c3,0,5.4,2.4,5.4,5.4V446.8z"/>
			<path fill="#00556E" d="M373.7,551.5h-74.5c-4.1,0-7.4-3.3-7.4-7.4V437.7c0-4.1,3.3-7.4,7.4-7.4h74.5c4.1,0,7.4,3.3,7.4,7.4
				v106.4C381.1,548.2,377.8,551.5,373.7,551.5z M299.2,434.7c-1.6,0-3,1.3-3,3v106.4c0,1.6,1.3,3,3,3h74.5c1.6,0,3-1.3,3-3V437.7
				c0-1.6-1.3-3-3-3H299.2z"/>
			<path fill="#00556E" d="M359.3,454.5h-44.9c-4,0-7.2-3.2-7.2-7.2v-1.2c0-4,3.2-7.2,7.2-7.2h44.9c4,0,7.2,3.2,7.2,7.2v1.2
				C366.5,451.2,363.3,454.5,359.3,454.5z M314.4,443.3c-1.5,0-2.8,1.2-2.8,2.8v1.2c0,1.5,1.2,2.8,2.8,2.8h44.9
				c1.5,0,2.8-1.2,2.8-2.8v-1.2c0-1.5-1.2-2.8-2.8-2.8H314.4z"/>
			<path fill="#00556E" d="M319.5,497.3c-0.4,0-0.9-0.1-1.3-0.4c-1-0.7-1.2-2.1-0.5-3.1l17.3-24.2c0.7-1,2.1-1.2,3.1-0.5
				c1,0.7,1.2,2.1,0.5,3.1l-17.3,24.2C320.9,497,320.2,497.3,319.5,497.3z"/>
			<path fill="#00556E" d="M316.3,525.3c-0.4,0-0.9-0.1-1.3-0.4c-1-0.7-1.3-2.1-0.6-3.1l36.6-53.6c0.7-1,2.1-1.3,3.1-0.6
				c1,0.7,1.3,2.1,0.6,3.1l-36.6,53.6C317.7,524.9,317,525.3,316.3,525.3z"/>
			<path fill="#C9EBFC" d="M388.6,504.9l-7.7-10.8l-46.2,33.2v0c8.8,3.8,19.6,2.3,28.2-3.9L388.6,504.9z"/>
			<path fill="#00556E" d="M344.9,531.6c-3.8,0-7.6-0.7-11.1-2.2c-0.7-0.3-1.2-1-1.3-1.8c-0.1-0.8,0.3-1.6,0.9-2l46.2-33.2
				c0.5-0.3,1.1-0.5,1.7-0.4c0.6,0.1,1.1,0.4,1.4,0.9l7.7,10.8c0.3,0.5,0.5,1.1,0.4,1.7s-0.4,1.1-0.9,1.4l-25.8,18.5
				C358.3,529.4,351.5,531.6,344.9,531.6z M339.5,526.6c7.2,1.6,15.3-0.1,22-4.9l24-17.2l-5.2-7.2L339.5,526.6z"/>
			<path fill="#83C3EB" d="M409,478.3l-0.4-0.5c-0.9-1.3-2.7-1.6-4-0.7l-23.7,17l3.7,5.2l23.7-17C409.6,481.4,409.9,479.6,409,478.3
				z"/>
			<path fill="#00556E" d="M384.6,501.5c-0.7,0-1.4-0.3-1.8-0.9l-3.7-5.2c-0.3-0.5-0.5-1.1-0.4-1.7c0.1-0.6,0.4-1.1,0.9-1.4l23.7-17
				c2.3-1.6,5.4-1.1,7.1,1.2l0.4,0.5c0.8,1.1,1.1,2.4,0.9,3.8c-0.2,1.3-0.9,2.5-2,3.3l-23.7,17C385.5,501.4,385,501.5,384.6,501.5z
				 M384,494.7l1.1,1.6l21.9-15.7c0.2-0.1,0.2-0.3,0.3-0.4c0-0.1,0-0.3-0.1-0.5c0,0,0,0,0,0l-0.4-0.5c-0.2-0.3-0.6-0.3-0.9-0.1
				L384,494.7z"/>
		</g>
		<g>
			<path fill="#83C3EB" d="M1025.4,810.6h46.5c1.3,0,2.6-0.5,3.6-1.4c9.1-8.1,14.8-20.3,14.8-33.9c0-24.5-18.7-71-41.7-71
				c-23,0-41.7,46.5-41.7,71c0,13.6,5.8,25.7,14.8,33.9C1022.7,810.1,1024,810.6,1025.4,810.6z"/>
			<path fill="#A5DFF9" d="M1014,775.4c0-23.2,16.8-66.1,38.1-70.6c-1.2-0.2-2.4-0.4-3.6-0.4c-23,0-41.7,46.5-41.7,71
				c0,13.6,5.8,25.7,14.8,33.9c1,0.9,2.3,1.4,3.6,1.4h7.2c-1.3,0-2.6-0.5-3.6-1.4C1019.8,801.1,1014,788.9,1014,775.4z"/>
			<path fill="#61A7CD" d="M1048.6,704.4c-1.7,0-3.3,0.3-4.9,0.7c20.7,5.9,36.8,47.6,36.8,70.2c0,13.6-5.8,25.7-14.8,33.9
				c-1,0.9-2.3,1.4-3.6,1.4h9.9c1.3,0,2.6-0.5,3.6-1.4c9.1-8.1,14.8-20.3,14.8-33.9C1090.3,750.9,1071.6,704.4,1048.6,704.4z"/>
			<path fill="#00556E" d="M1071.8,812.8h-46.5c-1.9,0-3.7-0.7-5.1-2c-9.9-8.9-15.6-21.8-15.6-35.5c0-13,4.9-30.9,12.5-45.7
				c9.1-17.7,20.3-27.5,31.5-27.5c11.2,0,22.4,9.8,31.5,27.5c7.6,14.7,12.5,32.6,12.5,45.7c0,13.7-5.7,26.6-15.6,35.5
				C1075.6,812.1,1073.7,812.8,1071.8,812.8z M1048.6,706.6c-9.3,0-19.3,9.1-27.5,25.1c-7.2,13.9-12,31.5-12,43.6
				c0,12.4,5.1,24.2,14.1,32.2c0.6,0.5,1.4,0.8,2.2,0.8h46.5c0.8,0,1.6-0.3,2.2-0.8c9-8,14.1-19.8,14.1-32.2
				c0-12.2-4.8-29.7-12-43.6C1067.9,715.8,1057.9,706.6,1048.6,706.6z"/>
			<rect x="1007.6" y="764.1" fill="#00556E" width="82.1" height="4.4"/>
			<polygon fill="#FCBA7D" points="1048.6,773.6 1055.7,786 1041.5,786 			"/>
			<path fill="#00556E" d="M1055.8,787.7h-14.4c-0.6,0-1.1-0.3-1.4-0.8c-0.3-0.5-0.3-1.1,0-1.7l7.2-12.5c0.3-0.5,0.8-0.8,1.4-0.8
				s1.1,0.3,1.4,0.8l7.2,12.5c0.3,0.5,0.3,1.1,0,1.7C1056.9,787.4,1056.4,787.7,1055.8,787.7z M1044.3,784.4h8.6l-4.3-7.5
				L1044.3,784.4z"/>
			<g>
				<path fill="#00556E" d="M1016.8,768.6c-1.2,0-2.2-1-2.2-2.2v-6.4c0-1.2,1-2.2,2.2-2.2c1.2,0,2.2,1,2.2,2.2v6.4
					C1019,767.6,1018,768.6,1016.8,768.6z"/>
				<path fill="#00556E" d="M1032.7,768.6c-1.2,0-2.2-1-2.2-2.2v-6.4c0-1.2,1-2.2,2.2-2.2s2.2,1,2.2,2.2v6.4
					C1034.9,767.6,1033.9,768.6,1032.7,768.6z"/>
				<path fill="#00556E" d="M1048.6,768.6c-1.2,0-2.2-1-2.2-2.2v-7.8c0-1.2,1-2.2,2.2-2.2c1.2,0,2.2,1,2.2,2.2v7.8
					C1050.8,767.6,1049.8,768.6,1048.6,768.6z"/>
				<path fill="#00556E" d="M1064.5,768.6c-1.2,0-2.2-1-2.2-2.2v-6.4c0-1.2,1-2.2,2.2-2.2c1.2,0,2.2,1,2.2,2.2v6.4
					C1066.7,767.6,1065.7,768.6,1064.5,768.6z"/>
				<path fill="#00556E" d="M1080.4,768.6c-1.2,0-2.2-1-2.2-2.2v-6.4c0-1.2,1-2.2,2.2-2.2s2.2,1,2.2,2.2v6.4
					C1082.7,767.6,1081.7,768.6,1080.4,768.6z"/>
			</g>
		</g>
		<g>
			<g>
				<path fill="#00556E" d="M365.9,246.5h-60.1c-10.6,0-19.2-8.6-19.2-19.2v-36.9c0-1.2,1-2.2,2.2-2.2h94c1.2,0,2.2,1,2.2,2.2v36.9
					C385.1,237.9,376.5,246.5,365.9,246.5z M291.1,192.6v34.7c0,8.1,6.6,14.7,14.7,14.7h60.1c8.1,0,14.7-6.6,14.7-14.7v-34.7H291.1z
					"/>
				<path fill="#00556E" d="M382.9,205.2h-94c-1.2,0-2.2-1-2.2-2.2v-12.6c0-1.2,1-2.2,2.2-2.2h94c1.2,0,2.2,1,2.2,2.2V203
					C385.1,204.2,384.1,205.2,382.9,205.2z M291.1,200.8h89.5v-8.1h-89.5V200.8z"/>
				<path fill="#00556E" d="M445.2,205.2h-62.4c-1.2,0-2.2-1-2.2-2.2v-7.7c0-1.2,1-2.2,2.2-2.2h62.4c3.1,0,5.6,2.5,5.6,5.6v1.1
					C450.8,202.7,448.3,205.2,445.2,205.2z M385.1,200.8h60.1c0.6,0,1.1-0.5,1.1-1.1v-1.1c0-0.6-0.5-1.1-1.1-1.1h-60.1V200.8z"/>
			</g>
			<path fill="#6DC49E" d="M365.9,244.3h-60.1c-9.4,0-16.9-7.6-16.9-16.9v-36.9h94v36.9C382.9,236.7,375.3,244.3,365.9,244.3z"/>
			<path fill="#A2D6B9" d="M298.9,227.4v-36.9h-10v36.9c0,9.4,7.6,16.9,16.9,16.9h10C306.5,244.3,298.9,236.7,298.9,227.4z"/>
			<path fill="#51AC8D" d="M369.5,190.4v36.9c0,9.4-7.6,16.9-16.9,16.9h13.4c9.4,0,16.9-7.6,16.9-16.9v-36.9H369.5z"/>
			<path fill="#00556E" d="M365.9,246.5h-60.1c-10.6,0-19.2-8.6-19.2-19.2v-36.9c0-1.2,1-2.2,2.2-2.2h94c1.2,0,2.2,1,2.2,2.2v36.9
				C385.1,237.9,376.5,246.5,365.9,246.5z M291.1,192.6v34.7c0,8.1,6.6,14.7,14.7,14.7h60.1c8.1,0,14.7-6.6,14.7-14.7v-34.7H291.1z"
				/>
			<rect x="288.9" y="190.4" fill="#C9EBFC" width="94" height="12.6"/>
			<rect x="369.5" y="190.4" fill="#ADD0E1" width="13.4" height="12.6"/>
			<path fill="#00556E" d="M382.9,205.2h-94c-1.2,0-2.2-1-2.2-2.2v-12.6c0-1.2,1-2.2,2.2-2.2h94c1.2,0,2.2,1,2.2,2.2V203
				C385.1,204.2,384.1,205.2,382.9,205.2z M291.1,200.8h89.5v-8.1h-89.5V200.8z"/>
			<path fill="#C9EBFC" d="M445.2,203h-62.4v-7.7h62.4c1.8,0,3.3,1.5,3.3,3.3v1.1C448.6,201.5,447.1,203,445.2,203z"/>
			<path fill="#00556E" d="M445.2,205.2h-62.4c-1.2,0-2.2-1-2.2-2.2v-7.7c0-1.2,1-2.2,2.2-2.2h62.4c3.1,0,5.6,2.5,5.6,5.6v1.1
				C450.8,202.7,448.3,205.2,445.2,205.2z M385.1,200.8h60.1c0.6,0,1.1-0.5,1.1-1.1v-1.1c0-0.6-0.5-1.1-1.1-1.1h-60.1V200.8z"/>
			<rect x="275.5" y="244.3" fill="#C9EBFC" width="126" height="7.1"/>
			<path fill="#00556E" d="M401.5,253.6h-126c-1.2,0-2.2-1-2.2-2.2v-7.1c0-1.2,1-2.2,2.2-2.2h126c1.2,0,2.2,1,2.2,2.2v7.1
				C403.7,252.6,402.8,253.6,401.5,253.6z M277.8,249.2h121.5v-2.7H277.8V249.2z"/>
		</g>
		<g>
			<rect x="623.5" y="439.2" fill="#83C3EB" width="162.4" height="93.3"/>
			<rect x="623.5" y="439.2" fill="#A5DFF9" width="6.8" height="93.3"/>
			<rect x="778.2" y="439.2" fill="#61A7CD" width="7.8" height="93.3"/>
			<path fill="#00556E" d="M786,534.8H623.5c-1.2,0-2.2-1-2.2-2.2v-93.3c0-1.2,1-2.2,2.2-2.2H786c1.2,0,2.2,1,2.2,2.2v93.3
				C788.2,533.8,787.2,534.8,786,534.8z M625.7,530.3h158v-88.9h-158V530.3z"/>
			<path fill="#C9EBFC" d="M739.5,518.8h-98.1c-2.7,0-4.8-2.2-4.8-4.8v-56.2c0-2.7,2.2-4.8,4.8-4.8h98.1c2.7,0,4.8,2.2,4.8,4.8V514
				C744.3,516.6,742.2,518.8,739.5,518.8z"/>
			<path fill="#ADD0E1" d="M739.5,453h-9c2.7,0,4.8,2.2,4.8,4.8V514c0,2.7-2.2,4.8-4.8,4.8h9c2.7,0,4.8-2.2,4.8-4.8v-56.2
				C744.3,455.1,742.2,453,739.5,453z"/>
			<path fill="#00556E" d="M739.5,521h-98.1c-3.9,0-7-3.2-7-7v-56.2c0-3.9,3.2-7,7-7h98.1c3.9,0,7,3.2,7,7V514
				C746.5,517.8,743.4,521,739.5,521z M641.4,455.2c-1.4,0-2.6,1.2-2.6,2.6V514c0,1.4,1.2,2.6,2.6,2.6h98.1c1.4,0,2.6-1.2,2.6-2.6
				v-56.2c0-1.4-1.2-2.6-2.6-2.6H641.4z"/>
			<circle fill="#FCBA7D" cx="766" cy="463.5" r="10.1"/>
			<path fill="#00556E" d="M766,475.8c-6.8,0-12.3-5.5-12.3-12.3c0-6.8,5.5-12.3,12.3-12.3c6.8,0,12.3,5.5,12.3,12.3
				C778.3,470.2,772.8,475.8,766,475.8z M766,455.6c-4.3,0-7.9,3.5-7.9,7.9s3.5,7.9,7.9,7.9c4.3,0,7.9-3.5,7.9-7.9
				S770.3,455.6,766,455.6z"/>
			<circle fill="#F5866D" cx="766" cy="498.4" r="10.1"/>
			<g>
				<rect x="637.4" y="532.6" fill="#83C3EB" width="20.1" height="10.1"/>
				<rect x="751.9" y="532.6" fill="#83C3EB" width="20.1" height="10.1"/>
			</g>
			<path fill="#00556E" d="M766,510.7c-6.8,0-12.3-5.5-12.3-12.3c0-6.8,5.5-12.3,12.3-12.3c6.8,0,12.3,5.5,12.3,12.3
				C778.3,505.2,772.8,510.7,766,510.7z M766,490.6c-4.3,0-7.9,3.5-7.9,7.9c0,4.3,3.5,7.9,7.9,7.9c4.3,0,7.9-3.5,7.9-7.9
				C773.9,494.1,770.3,490.6,766,490.6z"/>
			<g>
				<path fill="#00556E" d="M657.6,544.8h-20.1c-1.2,0-2.2-1-2.2-2.2v-10.1c0-1.2,1-2.2,2.2-2.2h20.1c1.2,0,2.2,1,2.2,2.2v10.1
					C659.8,543.9,658.8,544.8,657.6,544.8z M639.6,540.4h15.7v-5.6h-15.7V540.4z"/>
				<path fill="#00556E" d="M772.1,544.8h-20.1c-1.2,0-2.2-1-2.2-2.2v-10.1c0-1.2,1-2.2,2.2-2.2h20.1c1.2,0,2.2,1,2.2,2.2v10.1
					C774.3,543.9,773.3,544.8,772.1,544.8z M754.2,540.4h15.7v-5.6h-15.7V540.4z"/>
			</g>
			<path fill="#00556E" d="M665.9,486.8c-0.5,0-1.1-0.2-1.5-0.6c-0.9-0.8-1-2.2-0.1-3.1l15.5-16.8c0.8-0.9,2.2-1,3.1-0.1
				c0.9,0.8,1,2.2,0.1,3.1L667.5,486C667.1,486.5,666.5,486.8,665.9,486.8z"/>
			<path fill="#00556E" d="M674.8,505.3c-0.6,0-1.1-0.2-1.6-0.6c-0.9-0.9-0.9-2.3,0-3.1l32.6-33.1c0.9-0.9,2.3-0.9,3.1,0
				c0.9,0.9,0.9,2.3,0,3.1l-32.6,33.1C675.9,505,675.3,505.3,674.8,505.3z"/>
			<path fill="#00556E" d="M704.7,495.9c-0.5,0-1.1-0.2-1.5-0.6c-0.9-0.8-1-2.2-0.1-3.1l13.9-15.3c0.8-0.9,2.2-1,3.1-0.1
				c0.9,0.8,1,2.2,0.1,3.1l-13.9,15.3C705.9,495.6,705.3,495.9,704.7,495.9z"/>
		</g>
		<g>
			<rect x="650.8" y="700.1" fill="#FCBA7D" width="13.3" height="11.1"/>
			<path fill="#00556E" d="M666.4,713.4h-17.8v-15.5h17.8V713.4z M653.1,709h8.9v-6.7h-8.9V709z"/>
			<path fill="#6DC49E" d="M711.7,719.6c-14-7-29.5-10.6-45.1-10.6h-18.1c-7.1,0-12.8,5.7-12.8,12.8v59.7c0,8,6.5,14.4,14.4,14.4
				h112.5v-51.1L711.7,719.6z M732.7,766.3H654v-28.8c0-6.6,5.4-12,12-12h7.2c9.7,0,19.3,2.2,28,6.6l31.5,15.7V766.3z"/>
			<g>
				<path fill="#51AC8D" d="M656.5,766.3H654v-28.8c0-4.4,2.3-8.2,5.8-10.3h-0.6c-6.6,0-12,5.4-12,12V768h9.4V766.3z"/>
				<path fill="#51AC8D" d="M711.7,719.6c-14-7-29.5-10.6-45.1-10.6h-9.4c15.7,0,31.1,3.6,45.1,10.6l48.5,25.7
					c2.8,1.5,4.5,4.4,4.5,7.5l-0.3,43.2h7.5v-51.1L711.7,719.6z"/>
			</g>
			<path fill="#00556E" d="M762.6,798.1H650.1c-9.2,0-16.7-7.5-16.7-16.7v-59.7c0-8.3,6.8-15,15-15h18.1c15.9,0,31.9,3.7,46.1,10.8
				l0,0l50.8,25.3c0.8,0.4,1.2,1.1,1.2,2v51.1C764.8,797.1,763.8,798.1,762.6,798.1z M648.5,711.2c-5.8,0-10.6,4.8-10.6,10.6v59.7
				c0,6.7,5.5,12.2,12.2,12.2h110.3v-47.5l-49.6-24.7c-13.6-6.8-28.9-10.4-44.1-10.4H648.5z M732.7,768.5H654c-1.2,0-2.2-1-2.2-2.2
				v-28.8c0-7.8,6.4-14.2,14.2-14.2h7.2c10,0,20,2.4,29,6.8l31.5,15.7c0.8,0.4,1.2,1.1,1.2,2v18.6
				C734.9,767.5,733.9,768.5,732.7,768.5z M656.2,764.1h74.2v-15l-30.3-15.1c-8.3-4.1-17.7-6.3-27-6.3H666c-5.4,0-9.8,4.4-9.8,9.8
				V764.1z"/>
			<rect x="652.8" y="795.9" fill="#00556E" width="4.4" height="27.4"/>
			<path fill="#00556E" d="M654.9,873.9c-8,0-14.4-6.5-14.4-14.4v-24c0-8,6.5-14.4,14.4-14.4s14.4,6.5,14.4,14.4v24
				C669.3,867.5,662.9,873.9,654.9,873.9z M654.9,825.5c-5.5,0-10,4.5-10,10v24c0,5.5,4.5,10,10,10s10-4.5,10-10v-24
				C664.9,830,660.4,825.5,654.9,825.5z"/>
			<rect x="652.7" y="823.3" fill="#00556E" width="4.4" height="48.4"/>
			<rect x="762.6" y="781.7" fill="#FCBA7D" width="9.3" height="14.2"/>
			<path fill="#00556E" d="M774,798.1h-13.7v-18.7H774V798.1z M764.8,793.7h4.8v-9.8h-4.8V793.7z"/>
			<circle fill="#FCBA7D" cx="652.2" cy="781.1" r="5.3"/>
			<path fill="#00556E" d="M652.2,788.6c-4.1,0-7.5-3.4-7.5-7.5s3.4-7.5,7.5-7.5s7.5,3.4,7.5,7.5S656.3,788.6,652.2,788.6z
				 M652.2,778c-1.7,0-3.1,1.4-3.1,3.1s1.4,3.1,3.1,3.1c1.7,0,3.1-1.4,3.1-3.1S653.9,778,652.2,778z"/>
		</g>
		<g>
			<polygon fill="#6DC49E" points="727.4,272.4 653.2,272.4 657.5,222.9 723,222.9 			"/>
			<polygon fill="#A2D6B9" points="657.5,222.9 653.2,272.4 661.3,272.4 665.6,222.9 			"/>
			<polygon fill="#51AC8D" points="723,222.9 713.8,222.9 718.1,272.4 727.4,272.4 			"/>
			<path fill="#00556E" d="M727.4,274.6h-74.2c-0.6,0-1.2-0.3-1.6-0.7c-0.4-0.5-0.6-1.1-0.6-1.7l4.3-49.5c0.1-1.1,1.1-2,2.2-2H723
				c1.2,0,2.1,0.9,2.2,2l4.3,49.5c0.1,0.6-0.2,1.2-0.6,1.7C728.6,274.4,728,274.6,727.4,274.6z M655.6,270.2h69.3l-3.9-45.1h-61.5
				L655.6,270.2z"/>
			<circle fill="#C9EBFC" cx="690.3" cy="247.7" r="16.7"/>
			<path fill="#ADD0E1" d="M693.3,231.2c4.1,3,6.8,8,6.8,13.5c0,9.2-7.5,16.7-16.7,16.7c-1,0-2.1-0.1-3.1-0.3c2.8,2,6.2,3.2,9.9,3.2
				c9.2,0,16.7-7.5,16.7-16.7C707,239.5,701.1,232.7,693.3,231.2z"/>
			<path fill="#00556E" d="M690.3,266.6c-10.4,0-18.9-8.5-18.9-18.9c0-10.4,8.5-18.9,18.9-18.9c10.4,0,18.9,8.5,18.9,18.9
				C709.2,258.1,700.7,266.6,690.3,266.6z M690.3,233.2c-8,0-14.5,6.5-14.5,14.5c0,8,6.5,14.5,14.5,14.5c8,0,14.5-6.5,14.5-14.5
				C704.8,239.7,698.3,233.2,690.3,233.2z"/>
			<path fill="#83C3EB" d="M715.3,213.5h-50c-3,0-5.5,2.5-5.5,5.5v3.9h61V219C720.8,216,718.3,213.5,715.3,213.5z"/>
			<path fill="#00556E" d="M720.8,225.2h-61c-1.2,0-2.2-1-2.2-2.2V219c0-4.3,3.5-7.7,7.7-7.7h50c4.3,0,7.7,3.5,7.7,7.7v3.9
				C723,224.2,722,225.2,720.8,225.2z M662,220.7h56.6V219c0-1.8-1.5-3.3-3.3-3.3h-50c-1.8,0-3.3,1.5-3.3,3.3V220.7z"/>
			<path fill="#C9EBFC" d="M718.1,116.1h-55.7l3,91.4c0.1,3.4,2.9,6.1,6.3,6.1h37c3.4,0,6.2-2.7,6.3-6.1L718.1,116.1z"/>
			<path fill="#00556E" d="M708.8,215.8h-37c-4.6,0-8.4-3.6-8.5-8.2l-3-91.4c0-0.6,0.2-1.2,0.6-1.6c0.4-0.4,1-0.7,1.6-0.7h55.7
				c0.6,0,1.2,0.2,1.6,0.7c0.4,0.4,0.6,1,0.6,1.6l-3,91.4C717.1,212.2,713.4,215.8,708.8,215.8z M664.7,118.3l2.9,89.1
				c0.1,2.2,1.9,3.9,4.1,3.9h37c2.2,0,4-1.7,4.1-4l2.9-89.1H664.7z"/>
			<path fill="#00556E" d="M716.4,199l-1.8-4.1l13.8-6.2l4.7-57.9h-14.9v-4.4h17.3c0.6,0,1.2,0.3,1.6,0.7s0.6,1.1,0.6,1.7l-5,61.6
				c-0.1,0.8-0.6,1.5-1.3,1.8L716.4,199z"/>
			<polygon fill="#83C3EB" points="662.8,126 717.7,126 718.1,116.1 662.4,116.1 			"/>
			<path fill="#00556E" d="M717.7,128.2h-54.9c-1.2,0-2.2-0.9-2.2-2.1l-0.4-9.9c0-0.6,0.2-1.2,0.6-1.6c0.4-0.4,1-0.7,1.6-0.7h55.7
				c0.6,0,1.2,0.2,1.6,0.7c0.4,0.4,0.6,1,0.6,1.6l-0.4,9.9C719.9,127.3,718.9,128.2,717.7,128.2z M664.9,123.8h50.7l0.2-5.5h-51.1
				L664.9,123.8z"/>
			<rect x="677.8" y="108.3" fill="#C9EBFC" width="24.9" height="7.8"/>
			<path fill="#00556E" d="M702.7,118.3h-24.9c-1.2,0-2.2-1-2.2-2.2v-7.8c0-1.2,1-2.2,2.2-2.2h24.9c1.2,0,2.2,1,2.2,2.2v7.8
				C704.9,117.3,703.9,118.3,702.7,118.3z M680,113.8h20.4v-3.3H680V113.8z"/>
			<path fill="#00556E" d="M704.6,206.4C704.5,206.4,704.5,206.4,704.6,206.4c-1.3,0-2.3-1.1-2.2-2.3l2.4-70.7
				c0-1.2,1.1-2.2,2.3-2.1c1.2,0,2.2,1.1,2.1,2.3l-2.4,70.7C706.7,205.4,705.7,206.4,704.6,206.4z"/>
		</g>
	</g>
</g>
</svg>
